<?xml version="1.0" standalone="no"?>
<!DOCTYPE svg PUBLIC "-//W3C//DTD SVG 20010904//EN"
 "http://www.w3.org/TR/2001/REC-SVG-20010904/DTD/svg10.dtd">
<svg version="1.0" xmlns="http://www.w3.org/2000/svg"
 width="72.000000pt" height="72.000000pt" viewBox="0 0 72.000000 72.000000"
 preserveAspectRatio="xMidYMid meet">
<metadata>
Created by potrace 1.14, written by Peter Selinger 2001-2017
</metadata>
<g transform="translate(0.000000,72.000000) scale(0.100000,-0.100000)"
fill="#000000" stroke="none">
<path d="M250 653 c15 -27 52 -145 46 -150 -2 -2 -23 5 -45 15 -47 23 -49 21
-20 -20 12 -16 19 -31 16 -34 -4 -4 -75 5 -159 21 -42 8 -32 -18 12 -30 9 -2
102 -60 122 -75 19 -15 16 -17 -47 -39 -36 -13 -64 -25 -63 -27 2 -1 34 -4 71
-6 37 -1 67 -5 67 -8 0 -3 -41 -31 -90 -64 -50 -32 -90 -60 -90 -62 0 -3 -3
-4 125 25 50 11 95 21 101 21 7 0 12 -29 13 -82 1 -45 3 -84 5 -86 2 -1 30 42
62 98 32 55 61 100 65 100 4 0 22 -14 40 -31 55 -50 142 -130 173 -158 29 -26
29 -26 -9 44 -21 39 -55 100 -76 137 l-38 68 70 21 c39 12 67 25 62 29 -4 4
-32 15 -60 25 -29 9 -53 20 -53 25 0 5 18 55 40 111 22 57 39 107 38 111 -2 4
-33 -22 -71 -58 -66 -64 -67 -65 -76 -41 -11 30 -26 99 -23 110 1 4 -2 7 -7 7
-6 0 -15 -27 -22 -60 -6 -33 -16 -63 -20 -66 -5 -3 -42 29 -82 70 -71 74 -97
94 -77 59z"/>
</g>
</svg>
